<?xml version="1.0" standalone="no"?>
<!DOCTYPE svg PUBLIC "-//W3C//DTD SVG 20010904//EN"
 "http://www.w3.org/TR/2001/REC-SVG-20010904/DTD/svg10.dtd">
<svg version="1.0" xmlns="http://www.w3.org/2000/svg"
 width="16.000000pt" height="16.000000pt" viewBox="0 0 16.000000 16.000000"
 preserveAspectRatio="xMidYMid meet">
<metadata>
Created by potrace 1.11, written by Peter Selinger 2001-2013
</metadata>
<g transform="translate(0.000000,16.000000) scale(0.001060,-0.001060)"
fill="#000000" stroke="none">
<path d="M2335 8664 c-33 -8 -94 -31 -135 -51 -105 -52 -231 -178 -282 -283
-68 -138 -68 -137 -68 -810 0 -673 0 -672 68 -810 51 -105 177 -231 282 -282
143 -70 98 -68 1170 -68 917 0 967 1 1005 19 148 68 154 280 10 359 -27 15
-120 17 -975 22 -881 5 -948 6 -983 23 -55 26 -122 91 -149 145 l-23 47 0 545
c0 503 1 548 18 583 26 55 91 122 145 149 l47 23 945 5 c855 5 948 7 975 22
90 49 129 161 90 256 -21 49 -52 81 -100 103 -38 18 -87 19 -1010 18 -811 -1
-980 -3 -1030 -15z"/>
<path d="M5242 8660 c-249 -65 -430 -249 -494 -501 -16 -67 -20 -103 -16 -188
13 -286 185 -518 457 -615 l86 -31 720 -5 720 -5 47 -23 c55 -28 120 -95 144
-149 24 -57 22 -157 -6 -215 -25 -54 -91 -119 -147 -145 -35 -17 -101 -18
-963 -23 -836 -5 -928 -7 -955 -22 -153 -84 -132 -320 33 -368 26 -8 325 -10
977 -8 l940 3 80 28 c207 73 356 221 429 426 29 80 31 95 31 221 0 122 -3 143
-28 215 -73 207 -221 356 -426 429 l-86 31 -720 5 c-807 6 -753 1 -840 81 -61
56 -88 118 -87 199 0 38 7 81 16 103 24 54 89 121 144 148 46 23 56 24 392 29
372 5 375 6 427 62 72 76 68 215 -8 285 -56 51 -73 53 -446 52 -310 0 -356 -2
-421 -19z"/>
<path d="M8042 8660 c-247 -65 -430 -249 -493 -498 -19 -76 -20 -107 -17 -668
l3 -589 28 -80 c73 -207 221 -356 426 -429 l86 -31 920 -3 c638 -2 931 0 957
8 165 48 186 284 33 368 -27 15 -118 17 -935 22 l-905 5 -47 23 c-26 13 -65
43 -87 67 -67 72 -73 98 -79 293 l-4 172 1003 0 c955 0 1006 1 1044 19 48 22
79 54 100 103 41 100 -3 214 -100 259 -38 18 -89 19 -1044 19 l-1003 0 4 173
c6 194 12 220 79 292 22 24 61 54 87 66 46 23 56 24 392 29 372 5 375 6 427
62 72 76 68 215 -8 285 -56 51 -73 53 -446 52 -310 0 -356 -2 -421 -19z"/>
<path d="M11735 8667 c-91 -31 -170 -91 -228 -177 -17 -25 -37 -49 -45 -54 -8
-4 -21 -24 -29 -44 -13 -30 -836 -1264 -1073 -1607 -45 -66 -89 -134 -96 -152
-29 -68 -7 -170 47 -220 77 -71 218 -68 284 6 10 12 92 129 181 259 l161 237
913 0 913 0 161 -237 c89 -130 171 -247 181 -259 66 -74 207 -77 284 -6 54 50
76 152 47 220 -7 18 -51 86 -96 152 -46 66 -326 482 -623 925 -297 443 -561
827 -586 853 -25 26 -75 62 -110 80 -55 27 -76 32 -155 34 -56 2 -106 -2 -131
-10z m181 -512 c18 -19 29 -36 27 -39 -3 -3 2 -8 11 -12 9 -3 14 -9 11 -14 -2
-4 4 -16 15 -27 10 -12 16 -23 13 -27 -3 -3 2 -8 11 -12 9 -3 14 -9 11 -14 -2
-4 4 -16 15 -27 10 -12 16 -23 13 -27 -3 -3 2 -8 11 -12 9 -3 16 -10 16 -16 0
-12 61 -102 72 -106 4 -2 8 -10 8 -18 0 -8 5 -14 10 -14 6 0 10 -5 10 -11 0
-13 69 -112 82 -117 4 -2 8 -8 8 -14 0 -13 69 -112 82 -116 4 -2 8 -8 8 -14 0
-13 69 -112 82 -116 4 -2 8 -8 8 -14 0 -5 9 -23 21 -39 l20 -29 -631 0 -631 0
20 29 c12 16 21 34 21 39 0 6 4 12 8 14 13 4 82 103 82 116 0 6 4 12 8 14 13
4 82 103 82 116 0 6 4 12 8 14 13 5 82 104 82 117 0 6 5 11 10 11 6 0 10 6 10
14 0 8 4 16 8 18 15 6 72 96 72 113 0 9 4 14 8 11 8 -5 44 47 42 60 -1 4 2 10
7 13 13 9 55 71 49 71 -3 0 1 8 9 18 8 9 15 21 15 25 -1 9 49 52 70 60 25 9
53 -3 86 -38z"/>
<path d="M1045 8589 c-11 -6 -222 -212 -469 -458 -496 -494 -496 -493 -496
-611 0 -123 2 -126 473 -598 232 -233 442 -436 466 -453 81 -53 172 -33 228
50 24 36 31 112 14 141 -5 8 -190 195 -411 416 -382 380 -402 402 -403 438 -1
36 11 49 400 439 220 221 406 412 412 424 32 63 1 153 -68 200 -37 25 -110 31
-146 12z"/>
<path d="M13829 8577 c-69 -47 -100 -137 -68 -200 6 -12 192 -203 412 -424
389 -390 401 -403 400 -439 -1 -36 -21 -58 -403 -438 -221 -221 -406 -408
-411 -416 -17 -29 -10 -105 14 -141 56 -83 147 -103 228 -50 24 17 234 220
466 453 471 472 473 475 473 598 -1 115 3 111 -488 603 -246 247 -459 455
-474 463 -41 22 -109 18 -149 -9z"/>
</g>
</svg>
